inDegrees=yes
name=ik_iyer
DataType=double
version=3
OpenSimVersion=4.5
endheader
time	gndpitch	gndroll	gndyaw	spine_tx	spine_ty	spine_tz	pitch2	roll2	yaw2	aux7jnt_r3	aux7jnt_r1	aux7jnt_r2	aux6jnt_r3	aux6jnt_r1	aux6jnt_r2	aux5jnt_r3	aux5jnt_r1	aux5jnt_r2	aux4jnt_r3	aux4jnt_r1	aux4jnt_r2	aux3jnt_r3	aux3jnt_r1	aux3jnt_r2	pitch1	roll1	yaw1	aux1jnt_r3	aux1jnt_r1	aux1jnt_r2
71.17499999999906	4.21296440140691e-09	8.002416233845703e-10	4.440363815649541e-10	-3.97872216927308e-17	8.44526185968539e-17	-7.30666612219483e-19	-0.1171182600423633	0.1438225478578909	0.2144930450047793	-1.254842549793725	1.128937232280457	2.31043440651696	-1.47628173409706	1.29374762066745	2.691408719621845	-1.47628173409706	1.779930476076459	2.691408719621845	-1.107211300572796	1.779930476076459	2.691408719621845	-0.73814086704853	1.615124809103175	1.15521720325848	-0.0007999138140322297	-0.09863498125577325	-0.1750542604597329	-0.02548240454353647	-2.825684069153897	-1.113317730699314
71.19999999999906	4.21296440140691e-09	8.002416233845703e-10	4.440363815649541e-10	-3.97872216927308e-17	8.44526185968539e-17	-7.30666612219483e-19	-0.1155005857653278	0.1431207141290531	0.2141509009201679	-1.237510269466158	1.123428177969043	2.306748965503922	-1.45589086604589	1.287434314928455	2.687115575419107	-1.45589086604589	1.771244666641826	2.687115575419107	-1.09191814953442	1.771244666641826	2.687115575419107	-0.7279454330229451	1.607243228056291	1.153374482751961	9.492180080633687e-05	-0.09869097541445387	-0.1760277026717688	0.003023870429181454	-2.827288183638786	-1.11950867099191
71.22499999999907	4.21296440140691e-09	8.002416233845703e-10	4.440363815649541e-10	-3.97872216927308e-17	8.44526185968539e-17	-7.30666612219483e-19	-0.1136647307839379	0.1423945459794041	0.2137532798498286	-1.217840331191244	1.1177281102589	2.302465948300977	-1.43274981891544	1.280902110279006	2.682126318933927	-1.43274981891544	1.762257697355246	2.682126318933927	-1.074562364186578	1.762257697355246	2.682126318933927	-0.71637490945772	1.599088371870335	1.151232974150488	0.001137360105283674	-0.09872904754539343	-0.1770705602834965	0.03623224128162471	-2.828378869848743	-1.126141082374999
71.24999999999908	4.21296440140691e-09	8.002416233845703e-10	4.440363815649541e-10	-3.97872216927308e-17	8.44526185968539e-17	-7.30666612219483e-19	-0.1117183632489419	0.1416252141337727	0.2132886716609182	-1.196986326021027	1.111689228474035	2.297461372300927	-1.408215755322668	1.273981629035879	2.676296523702973	-1.408215755322668	1.752736539382101	2.676296523702973	-1.056161816492	1.752736539382101	2.676296523702973	-0.7041078776613342	1.590448788099785	1.148730686150464	0.002267049995719265	-0.09875270487057594	-0.1782078237326606	0.07222013684216326	-2.829056602292506	-1.133373900125938
71.27499999999908	4.21296440140691e-09	8.002416233845703e-10	4.440363815649541e-10	-3.97872216927308e-17	8.44526185968539e-17	-7.30666612219483e-19	-0.1095243606797795	0.1408284971707087	0.2127320267446688	-1.173479079779956	1.105435386801855	2.29146541300683	-1.380560239297714	1.266814806512834	2.669311873075751	-1.380560239297714	1.742876466504196	2.669311873075751	-1.035420179473285	1.742876466504196	2.669311873075751	-0.690280119648857	1.581501669918081	1.145732706503415	0.003530302513826462	-0.09876110861507169	-0.1794687420954613	0.1124628619237382	-2.829297351838362	-1.141393143796921
71.29999999999909	4.21296440140691e-09	8.002416233845703e-10	4.440363815649541e-10	-3.97872216927308e-17	8.44526185968539e-17	-7.30666612219483e-19	-0.1050551155070745	0.1401238916729631	0.2138540345349845	-1.125594155549168	1.099904575449103	2.303551237995087	-1.324225172406527	1.260476567482898	2.683390565232286	-1.324225172406527	1.734156353992439	2.683390565232286	-0.9931688793048961	1.734156353992439	2.683390565232286	-0.6621125862032635	1.573588961952681	1.151775618997544	0.002807461126659115	-0.09857334577698297	-0.1826949720874239	0.08943571034129667	-2.823918342752421	-1.161911462196787
71.32499999999909	4.21296440140691e-09	8.002416233845703e-10	4.440363815649541e-10	-3.97872216927308e-17	8.44526185968539e-17	-7.30666612219483e-19	-0.0817954004863917	0.1405066977489433	0.2341192315931497	-0.8763821189848299	1.10290941744609	2.521839940721964	-1.031035259809494	1.26392007795711	2.937673533083227	-1.031035259809494	1.738893915739277	2.937673533083227	-0.7732764448571209	1.738893915739277	2.937673533083227	-0.5155176299047468	1.57788786778907	1.260919970360982	-0.01590257489813854	-0.0982035158104716	-0.206527447655082	-0.5065993857457878	-2.81332349464314	-1.313482281131727
71.3499999999991	4.21296440140691e-09	8.002416233845703e-10	4.440363815649541e-10	-3.97872216927308e-17	8.44526185968539e-17	-7.30666612219483e-19	-0.0754630965036974	0.1397093324582523	0.232699226768553	-0.8085357859464223	1.096650486716544	2.506544209319132	-0.9512162401193091	1.256747423439451	2.919855643618608	-0.9512162401193091	1.729025819236992	2.919855643618608	-0.713412180089481	1.729025819236992	2.919855643618608	-0.4756081200596545	1.568933468898955	1.253272104659566	-0.01741987880403511	-0.09819457482739102	-0.2077936018533171	-0.5549352830228296	-2.813067354345528	-1.321534823897568
71.3749999999991	4.21296440140691e-09	8.002416233845703e-10	4.440363815649541e-10	-3.97872216927308e-17	8.44526185968539e-17	-7.30666612219483e-19	-0.06827390802394361	0.1389616631375174	0.2299715548716668	-0.7315085179557721	1.090781645243609	2.477162804434352	-0.8605961469604581	1.250021806217717	2.885629452613751	-0.8605961469604581	1.71977275405476	2.885629452613751	-0.6454471102203443	1.71977275405476	2.885629452613751	-0.430298073480229	1.560537154920999	1.238581402217176	-0.01925437587253371	-0.09820006811583236	-0.2080564990577695	-0.6133758245078891	-2.813224725467197	-1.323206809019777
71.39999999999911	4.21296440140691e-09	8.002416233845703e-10	4.440363815649541e-10	-3.97872216927308e-17	8.44526185968539e-17	-7.30666612219483e-19	-0.06568515450166111	0.1379607419431951	0.2281004171747424	-0.7037717835685515	1.08292489941565	2.457007647822123	-0.8279647747248827	1.241018076045244	2.862150853048886	-0.8279647747248827	1.707385474282154	2.862150853048886	-0.6209735810436645	1.707385474282154	2.862150853048886	-0.4139823873624414	1.549296826634616	1.228503823911062	-0.01607135247798086	-0.0982141917349669	-0.2089859403543279	-0.511976038195065	-2.813629337351128	-1.329117910368496
71.42499999999912	4.21296440140691e-09	8.002416233845703e-10	4.440363815649541e-10	-3.97872216927308e-17	8.44526185968539e-17	-7.30666612219483e-19	-0.06701510851061723	0.1368636127959872	0.2282173825281406	-0.7180213367902534	1.074312967828075	2.45826755243514	-0.8447289138941385	1.231148912656707	2.863618507032831	-0.8447289138941385	1.693807536508188	2.863618507032831	-0.6335466854206023	1.693807536508188	2.863618507032831	-0.4223644569470693	1.536976084645	1.22913377621757	-0.008472544344838595	-0.09820856195709314	-0.2118620811148396	-0.2699050806735506	-2.813468056095248	-1.347409715984968
71.44999999999912	4.21296440140691e-09	8.002416233845703e-10	4.440363815649541e-10	-3.97872216927308e-17	8.44526185968539e-17	-7.30666612219483e-19	-0.06796805831422656	0.1357307104099364	0.2291538026922689	-0.7282315462055404	1.065420233669199	2.468354300777542	-0.856740895527669	1.220957953115021	2.875368488925756	-0.856740895527669	1.679786873452325	2.875368488925756	-0.6425556716457509	1.679786873452325	2.875368488925756	-0.4283704477638345	1.52425360978097	1.234177150388771	-0.0009755310477347087	-0.09820857516602972	-0.215703446939121	-0.03107694399956616	-2.813468434503408	-1.371840202115631
71.47499999999913	4.21296440140691e-09	8.002416233845703e-10	4.440363815649541e-10	-3.97872216927308e-17	8.44526185968539e-17	-7.30666612219483e-19	-0.06359516751564927	0.1346637337279962	0.2272617254574652	-0.6813789936004091	1.057044984306995	2.447973591729466	-0.8016203805131357	1.211360024527831	2.851627144921642	-0.8016203805131357	1.666582098945583	2.851627144921642	-0.6012152853848509	1.666582098945583	2.851627144921642	-0.4008101902565678	1.512271479472452	1.223986795864733	0.001638402821302478	-0.09819107319281398	-0.2173095766598552	0.05219367732537061	-2.8129670399042	-1.382054936056983
71.49999999999913	4.21296440140691e-09	8.002416233845703e-10	4.440363815649541e-10	-3.97872216927308e-17	8.44526185968539e-17	-7.30666612219483e-19	-0.05827450994693402	0.1336017209302556	0.2217921597706293	-0.6243717642606708	1.048708699027776	2.38905758934212	-0.7345532162704425	1.2018067482811	2.782996309913602	-0.7345532162704425	1.653438756869976	2.782996309913602	-0.5509149122028318	1.653438756869976	2.782996309913602	-0.3672766081352212	1.500345093500548	1.19452879467106	0.003915623455115848	-0.09818684276969367	-0.215745236845524	0.124737814465858	-2.812845847209023	-1.372105979387435
71.52499999999914	4.21296440140691e-09	8.002416233845703e-10	4.440363815649541e-10	-3.97872216927308e-17	8.44526185968539e-17	-7.30666612219483e-19	-0.05281548261815129	0.1325519886929655	0.21388285242798	-0.5658819969932485	1.040468810190783	2.303861652962148	-0.6657418940350952	1.192363941123533	2.683752165434697	-0.6657418940350952	1.640447397526802	2.683752165434697	-0.499306420526319	1.640447397526802	2.683752165434697	-0.3328709470175476	1.48855661801729	1.151930826481074	0.00675493744681937	-0.09818527872117888	-0.2120022741571192	0.2151882436164831	-2.812801040519597	-1.348301321817814
71.54999999999914	4.21296440140691e-09	8.002416233845703e-10	4.440363815649541e-10	-3.97872216927308e-17	8.44526185968539e-17	-7.30666612219483e-19	-0.04710774315771732	0.1315887481887103	0.2114393151674608	-0.5047274482875331	1.032907839500927	2.277540834213998	-0.5937955424979748	1.183699165474154	2.65309122960092	-0.5937955424979748	1.628526449421996	2.65309122960092	-0.4453466568734804	1.628526449421996	2.65309122960092	-0.2968977712489874	1.477739443250697	1.138770417106999	0.00977782224856723	-0.0981876857171305	-0.2139684503605876	0.3114865848319642	-2.812869995874264	-1.360805895104129
71.57499999999915	4.21296440140691e-09	8.002416233845703e-10	4.440363815649541e-10	-3.97872216927308e-17	8.44526185968539e-17	-7.30666612219483e-19	-0.04949261105992184	0.09419855874239531	0.1434719571537716	-0.5302796868389016	0.7394129903506168	1.545423284801681	-0.6238569259319932	0.8473578243356792	1.800252667848826	-0.6238569259319932	1.165789982205968	1.800252667848826	-0.4678926944489948	1.165789982205968	1.800252667848826	-0.3119284629659966	1.057848240575846	0.7727116424008406	0.0214559232590812	-0.06224747216014487	-0.1500871937230767	0.6835092815649403	-1.783258720067197	-0.9545310892975414
71.59999999999916	4.21296440140691e-09	8.002416233845703e-10	4.440363815649541e-10	-3.97872216927308e-17	8.44526185968539e-17	-7.30666612219483e-19	-0.04652230812643608	0.1296192588942023	0.1617849598526997	-0.4984549098539399	1.017448303939473	1.742683720548206	-0.5864161036054523	1.165982735563474	2.030039956034584	-0.5864161036054523	1.604152287861008	2.030039956034584	-0.4398120777040884	1.604152287861008	2.030039956034584	-0.2932080518027261	1.455622111384443	0.871341860274103	0.02786235508431399	-0.09844094848884923	-0.1730658001329066	0.8875953775760361	-2.820125439837902	-1.100671433872069
